<svg width="26" height="21" viewBox="0 0 26 21" fill="none" xmlns="http://www.w3.org/2000/svg">
<g filter="url(#filter0_d)">
<mask id="mask0" mask-type="alpha" maskUnits="userSpaceOnUse" x="3" y="1" width="20" height="15">
<rect x="3" y="1" width="20" height="15" fill="white"/>
</mask>
<g mask="url(#mask0)">
<path fill-rule="evenodd" clip-rule="evenodd" d="M3 1V16H23V1H3Z" fill="#F7FCFF"/>
<mask id="mask1" mask-type="alpha" maskUnits="userSpaceOnUse" x="3" y="1" width="20" height="15">
<path fill-rule="evenodd" clip-rule="evenodd" d="M3 1V16H23V1H3Z" fill="white"/>
</mask>
<g mask="url(#mask1)">
<path fill-rule="evenodd" clip-rule="evenodd" d="M3 1V8.5H23V1H3Z" fill="#E31D1C"/>
</g>
</g>
<rect x="3" y="1" width="20" height="15" fill="url(#paint0_linear)" style="mix-blend-mode:overlay"/>
<path d="M4.5 2H21.5V0H4.5V2ZM22 2.5V14.5H24V2.5H22ZM21.5 15H4.5V17H21.5V15ZM4 14.5V2.5H2V14.5H4ZM4.5 15C4.22386 15 4 14.7761 4 14.5H2C2 15.8807 3.11929 17 4.5 17V15ZM22 14.5C22 14.7761 21.7761 15 21.5 15V17C22.8807 17 24 15.8807 24 14.5H22ZM21.5 2C21.7761 2 22 2.22386 22 2.5H24C24 1.11929 22.8807 0 21.5 0V2ZM4.5 0C3.11929 0 2 1.11929 2 2.5H4C4 2.22386 4.22386 2 4.5 2V0Z" fill="black" fill-opacity="0.1" style="mix-blend-mode:multiply"/>
</g>
<defs>
<filter id="filter0_d" x="0" y="0" width="26" height="21" filterUnits="userSpaceOnUse" color-interpolation-filters="sRGB">
<feFlood flood-opacity="0" result="BackgroundImageFix"/>
<feColorMatrix in="SourceAlpha" type="matrix" values="0 0 0 0 0 0 0 0 0 0 0 0 0 0 0 0 0 0 127 0" result="hardAlpha"/>
<feOffset dy="2"/>
<feGaussianBlur stdDeviation="1.5"/>
<feColorMatrix type="matrix" values="0 0 0 0 0 0 0 0 0 0 0 0 0 0 0 0 0 0 0.1 0"/>
<feBlend mode="normal" in2="BackgroundImageFix" result="effect1_dropShadow"/>
<feBlend mode="normal" in="SourceGraphic" in2="effect1_dropShadow" result="shape"/>
</filter>
<linearGradient id="paint0_linear" x1="13" y1="1" x2="13" y2="16" gradientUnits="userSpaceOnUse">
<stop stop-color="white" stop-opacity="0.7"/>
<stop offset="1" stop-opacity="0.3"/>
</linearGradient>
</defs>
</svg>
